# xmcd CD database file
#
# Track frame offsets:
#	150
#	21824
#	48213
#	59270
#	86634
#	118705
#	138752
#	170233
#	203216
#	248345
#	290497
#
# Disc length: 4720 seconds
#
# Revision: 0
# Processed by: cddbd v1.5.2PL0 Copyright (c) Steve Scherf et al.
# Submitted via: CDex 1.83
#
DISCID=95126e0b
DTITLE=John Coltrane - Giant Steps 1-7 Settin' The Pace
DYEAR=1960
DGENRE=Jazz
TTITLE0=Giant Steps
TTITLE1=Cousin Mary
TTITLE2=Countdown
TTITLE3=Spiral
TTITLE4=Syeeda's Song Flute
TTITLE5=Naima
TTITLE6=Mr PC
TTITLE7=Rise And Shine
TTITLE8=I See Your Face Before Me
TTITLE9=If There Is Someone Lovelier Than You
TTITLE10=Little Melonae
EXTD=YEAR: 1960
EXTT0=
EXTT1=
EXTT2=
EXTT3=
EXTT4=
EXTT5=
EXTT6=
EXTT7=
EXTT8=
EXTT9=
EXTT10=
PLAYORDER=
